<svg id="Capa_1" data-name="Capa 1" xmlns="http://www.w3.org/2000/svg" viewBox="0 0 595.28 841.89"><defs><style>.cls-1{fill:#fff;}.cls-2{fill:#58bcb1;}</style></defs><title>pin17</title><path class="cls-1" d="M499.61,476h0A246.31,246.31,0,0,0,545.05,333.1c0-136.64-110.77-247.41-247.41-247.41S50.23,196.46,50.23,333.1A246.23,246.23,0,0,0,95.67,476h0l0,0,.79,1.11,183.4,254.53a21.88,21.88,0,0,0,35.51,0L498.87,477.05l.69-1Z"/><path class="cls-2" d="M297.64,115C174.67,115,75,214.65,75,337.62a221.67,221.67,0,0,0,40.89,128.63h0l0,0,.72,1L281.66,696.34a19.7,19.7,0,0,0,32,0L478.74,467.18l.62-.87.05-.06h0a221.61,221.61,0,0,0,40.9-128.63C520.3,214.65,420.61,115,297.64,115Zm0,313.46a88.26,88.26,0,1,1,88.26-88.26A88.26,88.26,0,0,1,297.64,428.42Z"/></svg>