<svg id="Capa_1" data-name="Capa 1" xmlns="http://www.w3.org/2000/svg" viewBox="0 0 595.28 841.89"><defs><style>.cls-1{fill:#fff;}.cls-2{fill:#e072aa;}</style></defs><title>pin19</title><path class="cls-1" d="M499.61,463.73h0a246.33,246.33,0,0,0,45.44-142.92c0-136.64-110.77-247.41-247.41-247.41S50.23,184.17,50.23,320.81A246.26,246.26,0,0,0,95.67,463.73h0l0,0,.79,1.1,183.4,254.53a21.88,21.88,0,0,0,35.51,0L498.87,464.76l.69-1Z"/><path class="cls-2" d="M297.64,102.67C174.67,102.67,75,202.36,75,325.33A221.62,221.62,0,0,0,115.87,454h0l0,0,.72,1L281.66,684a19.7,19.7,0,0,0,32,0L478.74,454.88l.62-.87.05-.06h0a221.56,221.56,0,0,0,40.9-128.62C520.3,202.36,420.61,102.67,297.64,102.67Zm0,313.45a88.26,88.26,0,1,1,88.26-88.26A88.25,88.25,0,0,1,297.64,416.12Z"/></svg>