<svg id="Capa_1" data-name="Capa 1" xmlns="http://www.w3.org/2000/svg" viewBox="0 0 595.28 841.89"><defs><style>.cls-1{fill:#fff;}.cls-2{fill:#f3912d;}</style></defs><title>pin3</title><path class="cls-1" d="M499.61,483.73h0a246.31,246.31,0,0,0,45.44-142.92c0-136.64-110.77-247.41-247.41-247.41S50.23,204.17,50.23,340.81A246.23,246.23,0,0,0,95.67,483.73h0l0,0,.79,1.11L279.88,739.4a21.88,21.88,0,0,0,35.51,0L498.87,484.76l.69-1Z"/><path class="cls-2" d="M297.64,122.67C174.67,122.67,75,222.36,75,345.33A221.67,221.67,0,0,0,115.87,474h0l0,0,.72,1L281.66,704.05a19.7,19.7,0,0,0,32,0L478.74,474.89l.62-.87.05-.06h0a221.61,221.61,0,0,0,40.9-128.63C520.3,222.36,420.61,122.67,297.64,122.67Zm0,313.46a88.26,88.26,0,1,1,88.26-88.26A88.26,88.26,0,0,1,297.64,436.13Z"/></svg>