<svg id="Capa_1" data-name="Capa 1" xmlns="http://www.w3.org/2000/svg" viewBox="0 0 595.28 841.89"><defs><style>.cls-1{fill:#fff;}.cls-2{fill:#009879;}</style></defs><title>pin4</title><path class="cls-1" d="M509.47,463.73h0a246.26,246.26,0,0,0,45.44-142.92C554.91,184.17,444.14,73.4,307.5,73.4S60.09,184.17,60.09,320.81a246.26,246.26,0,0,0,45.44,142.92h0l0,0c.26.37.53.73.8,1.1L289.74,719.39a21.89,21.89,0,0,0,35.52,0L508.73,464.76c.23-.32.47-.64.7-1Z"/><path class="cls-2" d="M307.5,102.67c-123,0-222.66,99.69-222.66,222.66A221.62,221.62,0,0,0,125.73,454h0l0,0,.72,1L291.52,684a19.7,19.7,0,0,0,32,0L488.6,454.88l.63-.87,0-.06h0a221.62,221.62,0,0,0,40.89-128.62C530.16,202.36,430.47,102.67,307.5,102.67Zm0,313.45a88.26,88.26,0,1,1,88.26-88.26A88.26,88.26,0,0,1,307.5,416.12Z"/></svg>