<?xml version="1.0" encoding="utf-8"?>
<!-- Generator: Adobe Illustrator 24.0.2, SVG Export Plug-In . SVG Version: 6.00 Build 0)  -->
<svg version="1.1" id="Capa_1" xmlns="http://www.w3.org/2000/svg" xmlns:xlink="http://www.w3.org/1999/xlink" x="0px" y="0px"
	 viewBox="0 0 595.3 841.9" style="enable-background:new 0 0 595.3 841.9;" xml:space="preserve">
<style type="text/css">
	.st0{fill:#FFFFFF;}
</style>
<title>pin14</title>
<path class="st0" d="M499.6,483.7L499.6,483.7c29.6-41.8,45.5-91.7,45.4-142.9c0-136.6-110.8-247.4-247.4-247.4
	S50.2,204.2,50.2,340.8C50.1,392,66,442,95.7,483.7l0,0l0,0l0.8,1.1l183.4,254.5c7.1,9.8,20.7,12,30.5,5c1.9-1.4,3.6-3.1,5-5
	l183.5-254.6L499.6,483.7L499.6,483.7z"/>
<path d="M297.6,122.7c-123,0-222.6,99.7-222.6,222.7c-0.1,46.1,14.2,91.1,40.9,128.7l0,0l0,0l0.7,1l165.1,229
	c6.3,8.8,18.7,10.9,27.5,4.5c1.7-1.2,3.3-2.8,4.5-4.5l165.1-229.1l0.6-0.9l0-0.1l0,0c26.7-37.6,41-82.5,40.9-128.6
	C520.3,222.4,420.6,122.7,297.6,122.7z M297.6,436.1c-48.7,0-88.3-39.5-88.3-88.3s39.5-88.3,88.3-88.3s88.3,39.5,88.3,88.3
	C385.9,396.6,346.4,436.1,297.6,436.1C297.7,436.1,297.6,436.1,297.6,436.1z"/>
</svg>
