<svg id="Capa_1" data-name="Capa 1" xmlns="http://www.w3.org/2000/svg" viewBox="0 0 595.28 841.89"><defs><style>.cls-1{fill:#fff;}.cls-2{fill:#3a338a;}</style></defs><title>pin7</title><path class="cls-1" d="M499.61,480.24h0a246.33,246.33,0,0,0,45.44-142.92c0-136.64-110.77-247.41-247.41-247.41S50.23,200.68,50.23,337.32A246.26,246.26,0,0,0,95.67,480.24h0l0,0,.79,1.1L279.88,735.9a21.88,21.88,0,0,0,35.51,0L498.87,481.27l.69-1Z"/><path class="cls-2" d="M297.64,119.18C174.67,119.18,75,218.87,75,341.84a221.62,221.62,0,0,0,40.89,128.62h0l0,0,.72,1L281.66,700.55a19.7,19.7,0,0,0,32,0L478.74,471.39l.62-.87.05-.06h0a221.56,221.56,0,0,0,40.9-128.62C520.3,218.87,420.61,119.18,297.64,119.18Zm0,313.45a88.26,88.26,0,1,1,88.26-88.26A88.25,88.25,0,0,1,297.64,432.63Z"/></svg>