<svg id="Capa_1" data-name="Capa 1" xmlns="http://www.w3.org/2000/svg" viewBox="0 0 595.28 841.89"><defs><style>.cls-1{fill:#fff;}.cls-2{fill:#a5cc74;}</style></defs><title>pin9</title><path class="cls-1" d="M497.74,465.27h0a246.33,246.33,0,0,0,45.44-142.92c0-136.64-110.77-247.41-247.41-247.41S48.36,185.71,48.36,322.35A246.26,246.26,0,0,0,93.8,465.27h0l0,0,.79,1.1L278,720.93a21.88,21.88,0,0,0,35.51,0L497,466.3l.69-1Z"/><path class="cls-2" d="M295.77,104.21c-123,0-222.66,99.69-222.66,222.66A221.62,221.62,0,0,0,114,455.49h0l0,0,.72,1L279.79,685.58a19.7,19.7,0,0,0,32,0L476.87,456.42l.62-.87.05-.06h0a221.56,221.56,0,0,0,40.9-128.62C518.43,203.9,418.74,104.21,295.77,104.21Zm0,313.45A88.26,88.26,0,1,1,384,329.4,88.25,88.25,0,0,1,295.77,417.66Z"/></svg>